<svg width="64" height="64" viewBox="0 0 64 64" fill="none" xmlns="http://www.w3.org/2000/svg">
<path d="M42.76 58.17C41.8 58.17 40.84 57.89 39.98 57.32C37.69 55.78 37.07 52.68 38.61 50.38L51.48 31.2L38.61 12.02C37.07 9.73 37.68 6.62 39.98 5.08C42.27 3.54 45.38 4.15 46.92 6.45L63.52 31.2L46.92 55.95C45.96 57.39 44.37 58.16 42.76 58.17Z" fill="#9047E6"/>
<path d="M27.76 12.85C27.32 19.08 22.13 24 15.79 24C14.14 24 12.56 23.66 11.13 23.06C10.39 24.92 9.97001 26.95 9.97001 29.07C9.97001 33.27 11.57 37.08 14.18 39.97C14.67 39.9 15.17 39.85 15.68 39.85C17.08 39.85 18.34 40.1 19.46 40.59C20.59 41.08 21.53 41.79 22.3 42.71L20.57 44.33C22.34 44.99 24.26 45.37 26.26 45.37C35.26 45.37 42.55 38.07 42.55 29.08C42.55 20.59 36.05 13.62 27.75 12.86L27.76 12.85Z" fill="#FFC400"/>
<path d="M14.4 17.91C13.68 17.84 12.99 17.72 12.34 17.52C11.58 17.29 10.95 17 10.45 16.66L11.55 14.18C12.08 14.53 12.7 14.81 13.4 15.03C14.1 15.25 14.79 15.35 15.47 15.35C16.76 15.35 17.41 15.03 17.41 14.38C17.41 14.04 17.23 13.79 16.86 13.62C16.49 13.45 15.9 13.28 15.08 13.1C14.18 12.91 13.44 12.7 12.84 12.48C12.24 12.26 11.72 11.9 11.29 11.42C10.86 10.94 10.64 10.28 10.64 9.45C10.64 8.48 10.99 7.64 11.69 6.94C12.39 6.24 13.41 5.82 14.73 5.66V3.79H16.77V5.63C17.42 5.69 18.04 5.8 18.63 5.97C19.22 6.14 19.75 6.36 20.22 6.63L19.18 9.13C18.05 8.52 16.95 8.21 15.88 8.21C15.21 8.21 14.72 8.31 14.42 8.51C14.11 8.71 13.96 8.97 13.96 9.28C13.96 9.59 14.14 9.84 14.5 9.99C14.86 10.15 15.45 10.31 16.25 10.48C17.16 10.67 17.91 10.88 18.5 11.1C19.09 11.32 19.61 11.67 20.05 12.15C20.42 12.56 20.62 13.09 20.68 13.75C22.41 13.12 24.28 12.77 26.23 12.77C26.73 12.77 27.23 12.79 27.73 12.84C27.75 12.56 27.76 12.28 27.76 12C27.79 5.37 22.42 0 15.79 0C9.16001 0 3.79001 5.37 3.79001 12C3.79001 16.97 6.81001 21.23 11.11 23.05C11.87 21.13 13 19.38 14.39 17.9L14.4 17.91Z" fill="#3DB2FF"/>
<path d="M27.76 12.85C27.27 12.81 26.77 12.78 26.26 12.78C24.31 12.78 22.44 13.13 20.71 13.76C20.72 13.88 20.74 14 20.74 14.13C20.74 15.07 20.4 15.88 19.73 16.57C19.06 17.26 18.08 17.69 16.8 17.89V19.78H14.76V17.96C14.64 17.96 14.53 17.93 14.41 17.92C13.01 19.4 11.89 21.14 11.13 23.07C11.13 23.07 11.13 23.07 11.14 23.07C12.57 23.68 14.15 24.01 15.8 24.01C22.14 24.01 27.33 19.09 27.77 12.86L27.76 12.85Z" fill="#1CAD93"/>
<path d="M29.54 45.03C28.48 45.25 27.39 45.36 26.27 45.36C24.26 45.36 22.35 44.99 20.57 44.32L19.94 44.91C18.82 43.65 17.46 43.02 15.87 43.02C14.86 43.02 13.95 43.25 13.16 43.71C12.36 44.17 11.75 44.81 11.32 45.62H17.14V47.55H10.75C10.73 47.69 10.73 47.89 10.73 48.17C10.73 48.45 10.73 48.65 10.75 48.79H17.14V50.72H11.32C11.75 51.53 12.36 52.17 13.16 52.63C13.96 53.09 14.86 53.32 15.87 53.32C17.48 53.32 18.84 52.68 19.94 51.41L22.31 53.62C21.54 54.56 20.6 55.27 19.47 55.76C18.34 56.25 17.08 56.5 15.69 56.5C14.3 56.5 13.12 56.26 11.98 55.79C10.84 55.31 9.87001 54.64 9.07001 53.77C8.27001 52.9 7.70001 51.88 7.35001 50.73H4.75001V48.8H7.00001C6.98001 48.66 6.98001 48.45 6.98001 48.18C6.98001 47.91 6.98001 47.7 7.00001 47.56H4.75001V45.63H7.35001C7.70001 44.48 8.28001 43.47 9.07001 42.59C9.87001 41.72 10.84 41.04 11.98 40.57C12.68 40.28 13.42 40.09 14.18 39.98C12.63 38.26 11.43 36.21 10.72 33.95C4.53001 35.77 0.0100098 41.5 0.0100098 48.29C0.0100098 56.54 6.70001 63.23 14.95 63.23C23.2 63.23 29.89 56.54 29.89 48.29C29.89 47.18 29.77 46.09 29.54 45.05V45.03Z" fill="#FF8800"/>
<path d="M15.69 39.85C17.09 39.85 18.35 40.1 19.47 40.59C20.6 41.08 21.54 41.79 22.31 42.71L20.57 44.33C22.34 44.99 24.26 45.37 26.27 45.37C27.39 45.37 28.48 45.26 29.54 45.04C28.06 38.35 22.09 33.34 14.95 33.34C13.48 33.34 12.06 33.55 10.72 33.95C11.43 36.22 12.63 38.26 14.18 39.98C14.67 39.91 15.17 39.86 15.69 39.86V39.85Z" fill="#FF5500"/>
</svg>
